# xmcd CD database file
#
# Track frame offsets:
#	150
#	54898
#	101573
#	158945
#
# Disc length: 3658 seconds
#
# Revision: 0
# Processed by: cddbd v1.5.2PL0 Copyright (c) Steve Scherf et al.
# Submitted via: CDex 1.51
#
DISCID=270e4804
DTITLE=European Broadcasting Union Big Band - Jazz Concert Amsterband 1994 CD2 of 2
DYEAR=1994
DGENRE=Jazz
TTITLE0=Exposure
TTITLE1=Statue of love
TTITLE2=Blues forever
TTITLE3=Dedicated to Pablo
EXTD=YEAR: 1994
EXTT0=
EXTT1=
EXTT2=
EXTT3=
PLAYORDER=
